<svg version="1.1" xmlns="http://www.w3.org/2000/svg" xmlns:xlink="http://www.w3.org/1999/xlink" width="500px" height="500px" viewBox="0,0,256,256"><g transform="translate(25.6,25.6) scale(0.8,0.8)"><g fill="#ffffff" fill-rule="nonzero" stroke="none" stroke-width="1" stroke-linecap="butt" stroke-linejoin="miter" stroke-miterlimit="10" stroke-dasharray="" stroke-dashoffset="0" font-family="none" font-weight="none" font-size="none" text-anchor="none" style="mix-blend-mode: normal"><g transform="translate(0,0) scale(0.512,0.512)"><g transform="translate(14,484.06015) scale(0.1,-0.1)"><path d="M2792,4451c-12,-7 -28,-240 -82,-1146c-12,-198 -23,-365 -25,-371c-2,-6 -15,-11 -29,-11c-28,0 -76,-28 -76,-43c0,-15 -157,-12 -215,4c-83,22 -173,75 -195,116c-9,16 -4,22 31,42c38,21 77,73 65,85c-3,3 12,26 34,50c22,25 48,70 60,99c47,126 7,335 -80,429c-16,17 -33,49 -39,72c-30,113 -158,173 -371,173c-102,0 -181,-19 -264,-63c-118,-63 -213,-181 -237,-296c-7,-31 -23,-80 -37,-109c-20,-44 -23,-65 -20,-117c3,-55 9,-70 36,-102c18,-21 41,-51 50,-67c9,-16 31,-48 49,-71l31,-43l-58,-6c-81,-9 -160,-51 -183,-97c-26,-54 -40,-231 -33,-409c3,-85 11,-171 16,-191c13,-46 44,-74 100,-89c25,-7 53,-19 62,-27c10,-9 39,-22 65,-28l48,-12l6,-174c3,-96 6,-175 7,-177c1,-1 17,-11 35,-22c27,-17 50,-20 155,-20c86,0 133,4 158,15c29,12 40,12 57,2c14,-7 64,-12 137,-12c159,0 200,24 200,119c0,41 -29,73 -75,82c-40,7 -41,8 -19,60c36,86 64,247 71,402c5,135 8,152 22,146c39,-16 216,-16 279,0c58,16 126,14 136,-3c2,-3 -7,-172 -20,-376c-13,-203 -22,-376 -19,-383c5,-13 31,-16 39,-4c3,5 14,161 26,348c26,433 25,421 56,428c40,10 64,61 64,138c0,42 -5,71 -12,78c-7,5 -24,19 -38,29l-25,19l22,338c12,187 22,355 22,375c1,32 5,38 43,55c30,13 64,19 113,18c72,-1 78,-3 445,-142c86,-32 105,-36 200,-36c100,-1 108,1 173,33c37,19 67,40 67,48c0,8 -38,69 -85,135l-85,120l24,42c75,131 176,326 176,340c0,26 -18,27 -91,5c-125,-38 -150,-33 -584,121c-141,51 -237,62 -299,36c-49,-20 -46,-21 -46,13c0,30 -18,45 -38,32zM2022,3909c75,-16 145,-54 168,-91c11,-18 18,-33 17,-35c-2,-1 -21,7 -43,17c-22,11 -67,25 -100,31c-74,13 -178,-6 -261,-48l-56,-29l-46,24c-38,19 -58,23 -113,20l-68,-4l28,23c36,29 126,73 182,89c57,16 223,17 292,3zM1661,3759c53,-18 54,-25 15,-71c-21,-24 -49,-69 -63,-100l-27,-57l-29,15c-23,13 -41,13 -95,5c-36,-6 -68,-8 -71,-6c-7,8 26,105 52,150c18,32 33,43 72,57c59,20 100,22 146,7zM1574,3495c14,-13 31,-36 36,-50c24,-62 2,-162 -39,-184c-20,-11 -20,-10 -6,24c26,60 15,133 -30,199c-22,33 -23,36 -6,36c10,0 30,-11 45,-25zM1489,3484c85,-71 55,-245 -41,-244c-100,1 -150,169 -73,246c32,32 75,31 114,-2zM1642,3190c34,-61 91,-104 159,-120c78,-19 278,-8 356,19c75,25 79,26 62,4c-21,-25 -106,-61 -188,-79c-102,-23 -298,-15 -395,16c-60,19 -79,32 -135,88c-59,58 -64,66 -46,73c11,4 34,8 50,8c17,1 46,9 65,20c19,10 37,19 40,20c3,0 17,-22 32,-49zM1536,3035c16,-13 17,-16 4,-25c-8,-6 -31,-8 -50,-5c-19,2 -68,5 -109,5c-84,0 -86,7 -9,26c73,17 140,17 164,-1zM1680,2974c102,-22 285,-22 374,0c38,9 70,15 71,14c19,-29 74,-278 75,-340c0,-18 -19,-6 -25,15c-4,12 -16,32 -27,44c-20,21 -26,22 -176,18c-143,-4 -157,-6 -179,-26c-13,-13 -23,-34 -23,-51c0,-26 -3,-28 -42,-28c-24,0 -60,3 -81,7c-30,4 -37,9 -31,22c22,53 -6,66 -29,14c-9,-21 -22,-59 -28,-85l-11,-47l-53,-6c-52,-7 -111,0 -119,13c-7,12 22,185 42,249c40,126 94,187 182,202c3,1 39,-6 80,-15zM1443,2973l38,-6l-24,-26c-14,-14 -32,-41 -42,-60c-44,-87 -92,-374 -84,-505c2,-31 0,-56 -4,-56c-22,0 -65,32 -71,52c-4,13 -11,103 -17,201c-10,179 0,360 21,381c20,20 119,30 183,19zM2364,2856c39,-9 84,-17 100,-18c34,-3 44,-27 49,-115l2,-51l-35,-6c-55,-9 -151,-6 -199,7l-45,12l-25,125l-26,126l54,-33c30,-18 85,-39 125,-47zM2718,2884c26,-18 30,-70 7,-100c-15,-19 -15,-19 -30,0c-8,11 -15,35 -15,53c0,79 -62,8 -68,-78c-4,-48 -8,-58 -26,-63c-33,-9 -33,-9 -40,37c-4,23 -9,57 -12,75c-6,30 -4,32 21,32c17,0 37,11 55,30c32,34 72,39 108,14zM2776,2734c-9,-36 -34,-54 -76,-54c-37,0 -40,2 -49,38c-18,63 -9,84 17,42c26,-43 100,-8 104,49c1,15 3,9 5,-13c3,-22 2,-49 -1,-62zM2118,2691c17,-10 34,-83 22,-95c-4,-4 -29,-11 -53,-13c-36,-4 -51,-1 -72,16c-27,20 -54,17 -70,-9c-3,-6 -35,-10 -69,-10c-58,0 -64,2 -70,23c-19,73 -7,81 136,88c68,3 132,6 143,7c11,1 26,-2 33,-7zM1712,2588c47,-3 58,-6 58,-20c0,-21 -50,-24 -129,-7c-37,8 -48,14 -44,25c4,10 14,13 32,10c14,-3 52,-7 83,-8zM2200,2585c0,-8 -4,-15 -10,-15c-5,0 -10,7 -10,15c0,8 5,15 10,15c6,0 10,-7 10,-15zM2000,2565c0,-8 -7,-15 -15,-15c-8,0 -15,7 -15,15c0,8 7,15 15,15c8,0 15,-7 15,-15zM2144,2518c-9,-65 -27,-75 -151,-82c-60,-4 -121,-3 -138,2c-35,10 -60,52 -51,88c6,22 11,24 71,24c35,0 67,-4 70,-10c16,-25 43,-30 67,-10c14,10 44,20 69,23c24,2 50,4 57,5c9,2 11,-9 6,-40zM1693,2522l77,-5v-29c0,-19 10,-40 30,-60l30,-29l145,3c140,3 145,4 171,29c16,16 28,41 31,67c3,23 10,42 14,42c22,0 2,-202 -33,-332l-20,-78h-93c-51,0 -107,3 -124,6c-28,6 -31,10 -31,45v39h48c26,1 64,7 84,14c21,8 35,10 32,5c-7,-12 -74,-29 -116,-29c-35,0 -38,-2 -38,-30c0,-20 5,-30 15,-30c8,0 15,7 15,15c0,8 8,15 18,15c32,0 109,31 127,50c17,18 24,65 12,76c-8,8 -250,8 -275,0c-11,-4 -23,-14 -26,-22c-5,-14 11,-15 128,-12c74,2 132,0 129,-4c-2,-5 -65,-8 -139,-8c-126,0 -168,-9 -108,-24c18,-5 24,-12 20,-22c-3,-9 -6,-31 -6,-50v-34h-112c-118,0 -158,6 -158,22c0,5 5,6 10,3c6,-4 10,7 10,24c0,36 -17,42 -23,9c-4,-20 -4,-19 -6,5c-1,20 4,27 18,27c24,0 61,45 61,74c0,11 9,32 20,46c29,38 26,94 -6,119c-15,12 -32,21 -39,21c-7,0 -10,11 -7,31c3,23 8,29 21,23c9,-3 51,-9 94,-12zM1540,2474c0,-17 8,-23 34,-28c37,-7 52,-31 41,-66c-6,-20 -7,-20 -25,2c-18,22 -18,22 -17,-38c0,-33 -3,-67 -8,-74c-10,-17 -111,-8 -152,13c-34,18 -43,49 -43,152v60h85c80,0 85,-1 85,-21zM1853,2080c-5,-31 -13,-53 -18,-50c-6,3 -9,14 -8,25c1,11 5,49 8,85c4,36 10,72 13,80c10,24 14,-79 5,-140zM1798,2073c-3,-26 -7,-28 -58,-34c-46,-5 -100,-22 -100,-32c0,-2 31,-1 68,1c80,5 136,-14 153,-52c14,-31 5,-72 -18,-81c-30,-12 -167,-18 -227,-11c-79,10 -87,25 -79,144l6,92h129h129zM2115,2070c-10,-20 -23,-30 -38,-30c-13,0 -32,-7 -43,-15c-17,-13 -11,-14 62,-15c65,0 87,-4 105,-19c21,-17 22,-23 14,-57c-13,-49 -42,-64 -120,-62l-60,1l65,7c134,13 136,40 3,40c-81,0 -104,4 -131,20c-39,24 -66,81 -58,123c4,20 2,27 -7,24c-7,-2 -12,-22 -12,-49c0,-26 -3,-44 -7,-41c-9,5 -10,65 -2,87c5,13 26,16 125,16h120zM1920,1923c0,-34 3,-36 75,-47c17,-2 6,-3 -23,-2c-29,2 -54,5 -56,7c-2,2 -6,26 -9,53c-3,30 -1,43 4,35c5,-8 9,-29 9,-46z"></path><path d="M1588,3328c-6,-55 -3,-58 12,-13c8,25 9,40 2,47c-6,6 -11,-5 -14,-34z"></path><path d="M1398,3388c-9,-23 3,-38 28,-38c19,0 24,5 24,25c0,20 -5,25 -24,25c-13,0 -26,-6 -28,-12z"></path><path d="M1481,3289c-35,-19 -71,-17 -101,5c-8,6 -4,-2 9,-17c24,-27 72,-36 97,-19c10,6 39,54 32,51c-2,-1 -19,-10 -37,-20z"></path><path d="M1560,2964l-34,-15l29,-19c61,-41 196,-70 320,-69c64,0 193,20 237,38c25,9 26,13 18,42c-5,17 -11,33 -12,34c-2,1 -43,-6 -93,-17c-101,-21 -225,-19 -350,7c-83,18 -72,18 -115,-1z"></path><path d="M1251,2494c-1,-49 18,-137 32,-146c29,-19 37,-8 37,50c0,52 -3,60 -24,71c-13,8 -29,23 -34,35c-10,19 -11,19 -11,-10z"></path><path d="M1386,2342c9,-38 37,-60 88,-67c56,-9 80,-4 84,16c2,13 -9,18 -52,23c-32,4 -70,17 -91,31l-35,25z"></path><path d="M1547,2006c-3,-51 -2,-96 3,-107c12,-22 114,-34 213,-25c76,7 97,17 97,48c0,16 -3,17 -22,7c-13,-8 -64,-13 -120,-13c-89,-1 -98,1 -122,23c-18,17 -26,36 -27,60c-3,91 -15,95 -22,7z"></path><path d="M62,1568c-9,-9 -12,-97 -12,-334c0,-280 2,-325 16,-338c16,-17 41,-20 68,-10c13,5 16,22 16,83c0,42 3,140 7,219l6,142l27,-47c14,-27 64,-120 111,-208c92,-174 107,-195 143,-195c55,0 56,4 56,346c0,198 -4,322 -10,335c-7,13 -21,19 -45,19c-24,0 -38,-6 -45,-19c-6,-12 -10,-104 -10,-228l-1,-208l-107,207c-59,113 -116,216 -126,227c-21,23 -75,28 -94,9z"></path><path d="M632,1568c-9,-9 -12,-90 -12,-334c0,-348 1,-354 53,-354c48,0 47,-4 45,356l-3,339l-35,3c-19,2 -41,-3 -48,-10z"></path><path d="M966,1565c-49,-17 -92,-59 -108,-104c-9,-25 -13,-100 -13,-236c0,-195 1,-202 25,-250c35,-68 91,-97 189,-97c127,0 192,52 211,168c13,77 13,160 0,185c-10,17 -22,19 -110,19c-89,0 -100,-2 -110,-20c-8,-14 -8,-26 0,-40c9,-16 21,-20 65,-20h55v-59c0,-106 -32,-145 -118,-143c-39,0 -51,5 -74,31l-28,31v201v201l29,29c24,23 38,29 73,29c73,0 108,-29 123,-102c5,-25 10,-28 46,-28c32,0 41,4 48,22c23,64 -44,165 -125,187c-53,15 -131,13 -178,-4z"></path><path d="M1390,1561c-6,-13 -10,-137 -10,-335c0,-341 1,-346 55,-346c49,0 55,20 55,176v144h115h115v-72c0,-40 3,-110 7,-156c6,-76 8,-83 30,-88c14,-4 35,-2 49,5l24,11v329c0,362 1,355 -62,349l-33,-3l-6,-135c-4,-74 -7,-141 -8,-147c-1,-10 -31,-13 -116,-13h-115v131c0,72 -5,139 -10,150c-7,13 -21,19 -45,19c-24,0 -38,-6 -45,-19z"></path><path d="M1911,1558c-5,-13 -5,-32 -1,-43c6,-17 19,-21 91,-25l84,-5l5,-294c4,-262 7,-295 22,-305c11,-7 26,-7 45,0l28,9l3,298l2,297h78c82,0 102,9 102,45c0,42 -13,45 -237,45c-212,0 -214,0 -222,-22z"></path><path d="M2594,1556c-3,-14 -3,-34 1,-45c6,-19 14,-21 91,-21h84l2,-297l3,-298l28,-9c19,-7 34,-7 45,0c15,10 18,43 22,305l5,294l85,5l85,5v40v40l-222,3l-223,2z"></path><path d="M3143,1573c-10,-3 -13,-68 -13,-276c0,-242 2,-276 19,-312c34,-74 95,-107 201,-106c123,0 189,51 210,160c13,71 13,496 0,522c-7,13 -21,19 -45,19c-24,0 -38,-6 -45,-19c-6,-12 -10,-118 -10,-274c0,-241 -1,-256 -20,-280c-20,-25 -79,-50 -103,-42c-7,2 -25,6 -40,9c-16,4 -36,20 -47,39c-18,30 -20,51 -20,288c0,185 -3,258 -12,267c-12,12 -52,15 -75,5z"></path><path d="M3695,1568c-3,-7 -4,-162 -3,-343l3,-330l28,-9c55,-20 62,-5 65,153l3,141h49h50l66,-132c74,-149 88,-168 119,-168c22,0 55,28 55,46c0,5 -29,65 -65,133c-36,68 -65,127 -65,131c0,4 14,13 31,20c89,37 126,202 65,292c-40,59 -83,73 -249,76c-115,3 -148,1 -152,-10zM3964,1480c36,-13 58,-52 58,-105c0,-85 -44,-115 -169,-115h-63v115v115h74c41,0 86,-4 100,-10z"></path><path d="M4235,1567c-3,-6 -4,-160 -3,-341c3,-297 5,-330 20,-340c11,-7 26,-7 45,0l28,9l3,225l2,225l113,-212c62,-116 121,-221 131,-232c21,-23 47,-27 77,-11c18,10 19,25 19,338c0,350 0,352 -49,352c-50,0 -50,-2 -53,-238l-3,-223l-109,210c-60,116 -117,219 -128,231c-21,23 -86,28 -93,7z"></path><path d="M1171,681c-39,-21 -60,-54 -61,-96c0,-50 32,-88 108,-128c65,-35 112,-76 112,-99c0,-24 -34,-78 -52,-84c-35,-11 -97,-6 -130,10c-41,21 -48,20 -48,-4c0,-37 95,-66 166,-50c55,13 104,68 104,117c0,57 -29,94 -101,132c-86,45 -109,68 -109,105c0,37 7,49 37,65c30,16 66,14 108,-6c19,-9 38,-14 41,-10c13,13 -7,38 -41,52c-46,20 -92,18 -134,-4z"></path><path d="M2743,693c-10,-4 -13,-60 -13,-235v-229l23,3c22,3 22,3 25,229c2,232 1,244 -35,232z"></path><path d="M3015,688c-50,-18 -82,-46 -103,-91c-42,-88 -37,-227 11,-299c48,-72 173,-94 259,-46c63,34 91,91 96,194c7,126 -26,200 -102,235c-45,20 -114,23 -161,7zM3161,637c52,-34 73,-87 72,-178c-1,-127 -52,-192 -153,-192c-114,0 -165,88 -145,248c5,45 14,65 41,95c20,21 45,41 57,43c56,11 96,6 128,-16z"></path><path d="M3435,686c-54,-24 -80,-71 -68,-127c7,-37 46,-75 108,-106c61,-31 105,-70 105,-95c0,-31 -28,-76 -51,-83c-36,-12 -96,-7 -128,9c-40,21 -51,20 -51,-5c0,-44 142,-69 206,-36c43,22 64,59 64,110c0,58 -25,89 -102,128c-77,39 -108,70 -108,108c0,58 80,90 140,56c34,-20 50,-18 50,4c0,13 -13,24 -40,35c-48,19 -85,20 -125,2z"></path><path d="M1408,684c-4,-3 -4,-12 -1,-20c4,-10 24,-14 74,-14h69v-210v-210h25h25v210v209l73,3c56,2 72,6 72,18c0,13 -26,15 -166,18c-91,1 -168,0 -171,-4z"></path><path d="M1822,506c3,-169 5,-187 24,-213c67,-89 211,-89 278,0c19,26 21,44 24,213c3,178 3,184 -17,184c-19,0 -20,-8 -23,-174c-3,-198 -10,-218 -83,-245c-32,-13 -43,-13 -78,0c-75,26 -82,46 -85,245c-3,166 -5,174 -23,174c-20,0 -20,-6 -17,-184z"></path><path d="M2290,461v-231h78c96,0 143,13 187,51c102,90 92,305 -18,377c-36,24 -52,27 -144,30l-103,4zM2488,636c79,-41 111,-141 81,-251c-21,-78 -78,-115 -179,-115h-60v190v190h65c37,0 78,-6 93,-14z"></path></g></g></g></g></svg>