<svg version="1.1" xmlns="http://www.w3.org/2000/svg" xmlns:xlink="http://www.w3.org/1999/xlink" width="500px" height="500px" viewBox="0,0,256,256"><g transform="translate(-51.2,-51.2) scale(1.4,1.4)"><g fill="none" fill-rule="nonzero" stroke="none" stroke-width="1" stroke-linecap="butt" stroke-linejoin="miter" stroke-miterlimit="10" stroke-dasharray="" stroke-dashoffset="0" font-family="none" font-weight="none" font-size="none" text-anchor="none" style="mix-blend-mode: normal"><g transform="translate(-5.93882,5.36088) scale(0.512,0.512)"><path d="M349.465,333.636c-61.133,0 -121.77,0.001 -182.407,-0.001c-10.65,0 -18.567,-7.949 -18.567,-18.641c-0.002,-50.309 -0.003,-100.617 0,-150.926c0.001,-10.366 7.995,-18.43 18.277,-18.43c63.136,-0.003 126.273,0.174 189.407,-0.215c8.302,-0.051 18.609,10.17 18.534,18.611c-0.444,50.139 -0.219,100.283 -0.219,150.425c0,11.44 -7.679,19.175 -19.033,19.177c-1.832,0 -3.664,0 -5.992,0M347.799,230.634c-29.815,0 -59.63,-0.004 -89.445,0.003c-8.281,0.002 -10.857,2.505 -10.862,10.581c-0.012,22.32 -0.013,44.639 0.001,66.958c0.005,7.854 2.609,10.454 10.473,10.457c30.315,0.011 60.629,0.011 90.944,0.001c8.093,-0.003 10.576,-2.558 10.579,-10.85c0.008,-22.152 0.009,-44.305 -0.001,-66.458c-0.004,-8.165 -2.461,-10.591 -11.689,-10.692z" fill="#25a6df"></path><path d="M348.268,230.634c8.759,0.101 11.216,2.527 11.22,10.692c0.01,22.153 0.009,44.306 0.001,66.458c-0.003,8.292 -2.486,10.847 -10.579,10.85c-30.315,0.01 -60.629,0.01 -90.944,-0.001c-7.864,-0.003 -10.468,-2.603 -10.473,-10.457c-0.014,-22.319 -0.013,-44.638 -0.001,-66.958c0.005,-8.076 2.581,-10.579 10.862,-10.581c29.815,-0.007 59.63,-0.003 89.914,-0.003M272.712,286.698c0.646,1.351 1.218,2.743 1.949,4.046c7.985,14.246 25.15,20.516 40.459,14.806c14.855,-5.54 23.974,-21.645 20.847,-36.817c-3.974,-19.282 -22.075,-30.811 -40.875,-26.034c-18.66,4.743 -28.723,23.99 -22.38,43.999z" fill="#feffff"></path><path d="M272.597,286.321c-6.228,-19.632 3.835,-38.879 22.495,-43.622c18.8,-4.777 36.901,6.752 40.875,26.034c3.127,15.172 -5.992,31.277 -20.847,36.817c-15.309,5.71 -32.474,-0.56 -40.459,-14.806c-0.731,-1.303 -1.303,-2.695 -2.064,-4.423M295.474,258.484c-0.028,-1.865 -1.719,-3.076 -4.515,-3.141c-2.627,-0.061 -4.623,1.265 -4.617,3.212c0.01,3.052 -0.138,7.37 -0.152,10.166c-0.008,1.531 3.051,3.099 4.501,3.059c1.474,-0.04 4.499,-1.329 4.544,-2.904c0.091,-3.161 0.223,-6.41 0.239,-10.392M320.084,258.484c-0.105,-2.415 -1.674,-3.305 -3.912,-3.339c-2.19,-0.033 -4.421,1.323 -4.399,3.27c0.034,3.011 -0.085,7.377 -0.055,10.644c0.014,1.531 2.884,2.728 4.334,2.688c1.474,-0.04 4.206,-1.348 4.182,-2.871c-0.052,-3.275 0.008,-6.41 -0.15,-10.392z" fill="#28a7df"></path></g></g></g></svg>